<svg width="164" height="46" viewBox="0 0 164 46" fill="none" xmlns="http://www.w3.org/2000/svg">
<g clip-path="url(#clip0_1_7)">
<path d="M163.045 34.6572V40.0538H159.668C156.065 39.902 154.14 37.2934 154.14 32.3936V20.0683H151.782V15.3341H154.14V10.0341H159.123V15.2789H162.932V19.9993H159.123V31.7311C159.123 33.3183 159.359 34.5881 161.182 34.5881L163.045 34.6572Z" fill="#111111"/>
<path d="M131.922 27.7423V27.3834C131.868 25.796 132.049 24.2099 132.453 22.716C132.857 21.2222 133.477 19.85 134.278 18.678C135.078 17.5061 136.043 16.5575 137.118 15.8866C138.192 15.2157 139.355 14.8356 140.539 14.7682C140.776 14.7682 141.023 14.7682 141.26 14.7682C145.965 14.7682 150.093 18.4396 150.093 27.1902V29.0535H137.018C137.152 33.0837 138.779 35.3611 141.517 35.3611C143.875 35.3611 144.977 33.9808 145.296 31.9657H150.001C149.424 37.2243 146.295 40.1504 141.342 40.1504C135.906 40.0952 131.922 35.4853 131.922 27.7423ZM145.193 24.83C145.018 21.1586 143.638 19.392 141.239 19.392C138.841 19.392 137.461 21.3795 137.121 24.83H145.193Z" fill="#111111"/>
<path d="M111.579 27.7423V27.3834C111.525 25.7982 111.704 24.2143 112.107 22.7222C112.51 21.2301 113.128 19.859 113.927 18.6875C114.725 17.5159 115.688 16.5667 116.76 15.8942C117.832 15.2218 118.993 14.8391 120.175 14.7682C120.412 14.7682 120.659 14.7682 120.896 14.7682C125.601 14.7682 129.74 18.4396 129.74 27.1902V29.0535H116.675C116.809 33.0837 118.435 35.3611 121.174 35.3611C123.531 35.3611 124.633 33.9808 124.952 31.9657H129.657C129.07 37.2243 125.941 40.1504 120.989 40.1504C115.563 40.0952 111.579 35.4853 111.579 27.7423ZM124.849 24.83C124.674 21.1586 123.295 19.392 120.896 19.392C118.497 19.392 117.159 21.4347 116.778 24.8162L124.849 24.83Z" fill="#111111"/>
<path d="M83.0295 15.2789H88.3008L91.5232 31.6483L95.0545 15.2789H99.1727L102.364 31.6483L105.762 15.2789H110.59L104.866 39.5983H99.9242L96.8356 24.3331L93.5308 39.5983H88.5273L83.0295 15.2789Z" fill="#111111"/>
<path d="M66.279 31.9519H70.984C71.2002 34.1464 72.0135 35.4024 74.1755 35.4024C76.1111 35.4024 77.0068 34.4225 77.0068 32.7524C77.0068 31.0824 75.9772 30.3785 73.3416 29.8816C68.5131 28.9016 66.6496 27.0383 66.6496 22.2904C66.6496 17.225 70.1089 14.713 73.8564 14.713C77.8819 14.713 80.919 16.6729 81.3514 22.2628H76.7082C76.6786 21.8306 76.5854 21.4107 76.434 21.0271C76.2826 20.6435 76.076 20.304 75.8261 20.0281C75.5763 19.7521 75.2881 19.5453 74.9783 19.4196C74.6685 19.2938 74.3432 19.2516 74.0211 19.2953H73.8667C72.24 19.2953 71.2928 20.3167 71.2928 21.8073C71.2928 23.298 72.1679 23.9467 74.8241 24.4573C79.3335 25.3683 81.8559 26.9003 81.8559 32.1037C81.8559 37.3071 79.0041 40.0952 74.227 40.0952C69.45 40.0952 66.4128 37.2105 66.279 31.9519Z" fill="#111111"/>
<path d="M46.2854 15.2789H51.2684V19.1297C51.83 17.7163 52.6825 16.5487 53.7246 15.7658C54.7667 14.9829 55.9546 14.6175 57.147 14.713C60.6783 14.713 63.2419 17.5977 63.2419 24.1813V39.6535H58.3207V25.1475C58.3207 21.8487 57.3632 20.2753 55.1394 20.2753C54.6694 20.2204 54.1959 20.2906 53.7462 20.4817C53.2964 20.6728 52.8792 20.9811 52.5186 21.3889C52.158 21.7967 51.861 22.296 51.6447 22.8581C51.4283 23.4202 51.297 24.034 51.2581 24.6644C51.2323 24.9578 51.2323 25.2543 51.2581 25.5477V39.5983H46.2854V15.2789Z" fill="#111111"/>
<path d="M36.6695 9.16456C36.6515 8.49852 36.7812 7.84026 37.0424 7.27314C37.3035 6.70602 37.6844 6.25553 38.1366 5.97872C38.5888 5.7019 39.0922 5.6112 39.5829 5.71811C40.0736 5.82501 40.5296 6.12471 40.8932 6.57926C41.2568 7.03381 41.5116 7.62277 41.6254 8.27157C41.7391 8.92037 41.7067 9.59983 41.5323 10.2239C41.3578 10.848 41.0492 11.3887 40.6454 11.7775C40.2416 12.1663 39.7608 12.3858 39.264 12.4081H39.1713C38.8629 12.4342 38.5537 12.3785 38.2614 12.2441C37.9691 12.1097 37.6995 11.8993 37.4681 11.6248C37.2366 11.3504 37.0478 11.0174 36.9125 10.645C36.7773 10.2725 36.6982 9.86793 36.6798 9.45441C36.6713 9.35824 36.6678 9.26138 36.6695 9.16456ZM36.6695 15.2789H41.704V39.5983H36.6901L36.6695 15.2789Z" fill="#111111"/>
<path d="M17.6952 6.36273H33.6118V12.2563H23.3165V21.0482H31.4704V26.7209H23.3062V39.5983H17.6952V6.36273Z" fill="#111111"/>
<path d="M8.08961 17.2388C8.08961 19.3229 8.08961 21.8625 5.94818 22.8977C8.14109 23.9053 8.08961 26.0446 8.08961 28.2805V36.5618C8.08961 38.1353 8.5632 39.0876 9.40742 39.3223C9.59292 39.4062 9.78835 39.4436 9.98396 39.4327H12.043V44.9535H8.64556C5.02159 44.9535 3.02429 42.1931 3.02429 37.0725V27.273C2.99859 26.7699 2.83312 26.298 2.56056 25.9505C2.28799 25.603 1.92814 25.4051 1.55206 25.3959H0.666656V20.5513H1.55206C1.93565 20.5445 2.30257 20.3401 2.57669 19.9803C2.85081 19.6205 3.0111 19.133 3.02429 18.619V8.68149C3.02429 3.64371 4.98041 0.924683 8.64556 0.924683H12.0739V6.36273H10.0148C9.819 6.36349 9.62446 6.40541 9.4383 6.48695C8.59408 6.77679 8.1205 7.71534 8.1205 9.24738L8.08961 17.2388Z" fill="#111111"/>
</g>
<defs>
<clipPath id="clip0_1_7">
<rect width="162.667" height="44.1669" fill="white" transform="translate(0.666656 0.924683)"/>
</clipPath>
</defs>
</svg>
